<svg xmlns="http://www.w3.org/2000/svg" xmlns:xlink="http://www.w3.org/1999/xlink" width="500" zoomAndPan="magnify" viewBox="0 0 375 374.999991" height="500" preserveAspectRatio="xMidYMid meet" version="1.0"><defs><clipPath id="id1"><path d="M 4.109375 21.789062 L 370.859375 21.789062 L 370.859375 309.039062 L 4.109375 309.039062 Z M 4.109375 21.789062 " clip-rule="nonzero"/></clipPath><clipPath id="id2"><path d="M 4.109375 234 L 370.859375 234 L 370.859375 309.039062 L 4.109375 309.039062 Z M 4.109375 234 " clip-rule="nonzero"/></clipPath></defs><g clip-path="url(#id1)"><path fill="#72ffff" d="M 4.109375 308.90625 L 104 144.273438 L 104.453125 143.53125 L 104.675781 143.15625 L 104.902344 142.789062 L 105.128906 142.414062 L 105.351562 142.046875 L 105.804688 141.304688 L 106.027344 140.933594 L 106.253906 140.558594 L 106.480469 140.1875 L 106.703125 139.816406 L 107.15625 139.074219 L 107.378906 138.703125 L 107.832031 137.960938 L 108.054688 137.589844 L 108.507812 136.847656 L 108.730469 136.476562 L 109.183594 135.734375 L 109.40625 135.363281 L 109.859375 134.621094 L 110.082031 134.246094 L 110.535156 133.503906 L 110.757812 133.136719 L 111.210938 132.394531 L 111.433594 132.023438 L 111.660156 131.648438 L 112.113281 130.90625 L 112.335938 130.535156 L 112.5625 130.164062 L 112.785156 129.792969 L 113.238281 129.050781 L 113.460938 128.679688 L 114.140625 127.566406 L 114.363281 127.195312 L 114.589844 126.824219 L 114.8125 126.453125 L 115.492188 125.339844 L 115.714844 124.96875 L 115.941406 124.597656 L 116.167969 124.222656 L 116.390625 123.855469 L 116.617188 123.484375 L 116.839844 123.113281 L 117.292969 122.371094 L 117.519531 121.996094 L 117.742188 121.625 L 118.195312 120.882812 L 118.417969 120.511719 L 118.871094 119.769531 L 119.09375 119.398438 L 119.546875 118.65625 L 119.769531 118.285156 L 120.222656 117.542969 L 120.445312 117.171875 L 120.898438 116.429688 L 121.121094 116.058594 L 121.574219 115.316406 L 121.796875 114.941406 L 122.25 114.199219 L 122.472656 113.828125 L 122.699219 113.460938 L 122.925781 113.085938 L 123.148438 112.714844 L 123.828125 111.601562 L 124.050781 111.230469 L 124.277344 110.859375 L 124.5 110.488281 L 124.953125 109.746094 L 125.175781 109.375 L 125.855469 108.261719 L 126.078125 107.890625 L 126.304688 107.519531 L 126.527344 107.148438 L 126.753906 106.777344 L 126.980469 106.402344 L 127.203125 106.03125 L 127.882812 104.917969 L 128.105469 104.546875 L 128.332031 104.175781 L 128.554688 103.804688 L 129.007812 103.0625 L 129.230469 102.691406 L 129.910156 101.578125 L 130.132812 101.207031 L 130.359375 100.835938 L 130.582031 100.464844 L 131.035156 99.722656 L 131.257812 99.347656 L 131.710938 98.605469 L 131.933594 98.238281 L 132.386719 97.496094 L 132.609375 97.121094 L 133.289062 96.007812 L 133.511719 95.636719 L 133.738281 95.265625 L 133.960938 94.894531 L 134.414062 94.152344 L 134.636719 93.78125 L 135.089844 93.039062 L 135.3125 92.667969 L 135.765625 91.925781 L 135.988281 91.554688 L 136.441406 90.8125 L 136.664062 90.441406 L 137.117188 89.699219 L 137.339844 89.328125 L 137.566406 88.953125 L 137.792969 88.585938 L 138.015625 88.214844 L 138.46875 87.472656 L 138.691406 87.097656 L 139.371094 85.984375 L 139.59375 85.613281 L 139.820312 85.242188 L 140.042969 84.871094 L 140.496094 84.128906 L 140.71875 83.757812 L 141.171875 83.015625 L 141.394531 82.644531 L 141.847656 81.902344 L 142.070312 81.53125 L 142.523438 80.789062 L 142.746094 80.417969 L 142.972656 80.046875 L 143.199219 79.671875 L 143.425781 79.300781 L 143.648438 78.933594 L 143.875 78.5625 L 144.097656 78.191406 L 144.324219 77.816406 L 144.550781 77.445312 L 144.773438 77.074219 L 145.453125 75.960938 L 145.675781 75.589844 L 145.902344 75.21875 L 146.125 74.847656 L 146.578125 74.105469 L 146.800781 73.734375 L 147.253906 72.992188 L 147.476562 72.621094 L 147.929688 71.878906 L 148.152344 71.507812 L 148.378906 71.136719 L 148.605469 70.761719 L 148.828125 70.390625 L 149.28125 69.648438 L 149.503906 69.277344 L 149.957031 68.535156 L 150.179688 68.164062 L 150.632812 67.421875 L 150.855469 67.050781 L 151.308594 66.308594 L 151.53125 65.9375 L 151.984375 65.195312 L 152.207031 64.824219 L 152.660156 64.082031 L 152.882812 63.710938 L 153.109375 63.335938 L 153.335938 62.96875 L 153.558594 62.597656 L 154.011719 61.855469 L 154.234375 61.480469 L 154.6875 60.738281 L 154.910156 60.367188 L 155.363281 59.625 L 155.585938 59.253906 L 156.039062 58.511719 L 156.261719 58.140625 L 156.714844 57.398438 L 156.9375 57.027344 L 157.390625 56.285156 L 157.613281 55.914062 L 158.066406 55.171875 L 158.289062 54.800781 L 158.515625 54.429688 L 158.742188 54.054688 L 158.964844 53.683594 L 159.191406 53.316406 L 159.417969 52.945312 L 159.640625 52.574219 L 159.867188 52.203125 L 160.09375 51.828125 L 160.316406 51.457031 L 160.769531 50.714844 L 160.992188 50.347656 L 161.21875 49.972656 L 161.445312 49.601562 L 161.667969 49.230469 L 162.121094 48.488281 L 162.34375 48.117188 L 162.796875 47.375 L 163.019531 47.003906 L 163.246094 46.632812 L 163.355469 46.457031 L 163.46875 46.261719 L 163.636719 45.988281 L 163.640625 45.980469 C 163.738281 45.8125 163.839844 45.644531 163.9375 45.476562 L 163.945312 45.460938 L 163.960938 45.4375 L 163.964844 45.433594 L 163.96875 45.421875 L 163.984375 45.398438 L 164 45.371094 L 164.007812 45.355469 L 164.015625 45.347656 L 164.015625 45.34375 L 164.023438 45.332031 L 164.023438 45.328125 L 164.03125 45.316406 L 164.035156 45.3125 L 164.042969 45.296875 L 164.046875 45.292969 L 164.054688 45.277344 L 164.0625 45.265625 L 164.0625 45.261719 L 164.070312 45.253906 L 164.074219 45.242188 L 164.078125 45.238281 L 164.09375 45.214844 L 164.09375 45.207031 L 164.097656 45.199219 L 164.105469 45.191406 L 164.105469 45.1875 L 164.113281 45.175781 L 164.121094 45.160156 L 164.125 45.15625 L 164.128906 45.148438 C 164.203125 45.023438 164.273438 44.902344 164.34375 44.777344 L 164.351562 44.765625 L 164.355469 44.757812 L 164.359375 44.753906 L 164.363281 44.742188 L 164.367188 44.742188 L 164.371094 44.730469 L 164.375 44.722656 L 164.378906 44.71875 L 164.390625 44.695312 L 164.394531 44.691406 L 164.398438 44.683594 L 164.40625 44.671875 L 164.425781 44.636719 L 164.433594 44.625 L 164.433594 44.621094 L 164.4375 44.613281 L 164.453125 44.589844 L 164.453125 44.585938 L 164.457031 44.578125 L 164.5 44.511719 L 164.503906 44.5 L 164.511719 44.488281 L 164.515625 44.484375 L 164.542969 44.429688 L 164.546875 44.429688 L 164.554688 44.417969 L 164.554688 44.414062 L 164.558594 44.40625 L 164.773438 44.035156 C 164.910156 43.789062 165.050781 43.539062 165.191406 43.292969 L 165.195312 43.289062 L 165.203125 43.273438 L 165.203125 43.269531 L 165.210938 43.257812 L 165.214844 43.253906 L 165.230469 43.222656 L 165.234375 43.21875 L 165.242188 43.207031 L 165.242188 43.203125 L 165.25 43.1875 L 165.253906 43.183594 L 165.261719 43.171875 L 165.261719 43.167969 L 165.269531 43.152344 L 165.273438 43.148438 L 165.277344 43.136719 L 165.28125 43.132812 L 165.289062 43.117188 L 165.292969 43.113281 L 165.296875 43.101562 L 165.300781 43.097656 L 165.308594 43.085938 L 165.3125 43.078125 L 165.316406 43.066406 L 165.320312 43.0625 L 165.328125 43.050781 L 165.332031 43.042969 L 165.335938 43.03125 L 165.339844 43.027344 L 165.347656 43.015625 L 165.351562 43.007812 L 165.355469 42.996094 L 165.359375 42.992188 L 165.367188 42.980469 L 165.378906 42.957031 L 165.386719 42.945312 L 165.398438 42.921875 L 165.609375 42.550781 L 165.613281 42.539062 L 165.617188 42.53125 L 165.621094 42.527344 L 165.628906 42.515625 L 165.632812 42.503906 L 165.636719 42.5 L 165.640625 42.492188 L 165.648438 42.480469 L 165.652344 42.46875 L 165.65625 42.464844 L 165.660156 42.457031 L 165.667969 42.445312 L 165.671875 42.433594 L 165.675781 42.429688 L 165.679688 42.421875 L 165.6875 42.410156 L 165.691406 42.398438 L 165.695312 42.394531 L 165.699219 42.386719 L 165.707031 42.375 L 165.710938 42.363281 L 165.714844 42.359375 L 165.71875 42.351562 L 165.726562 42.34375 L 165.726562 42.339844 L 165.730469 42.328125 L 165.734375 42.324219 L 165.738281 42.316406 L 165.746094 42.308594 L 165.75 42.296875 L 165.753906 42.289062 L 165.757812 42.285156 L 165.765625 42.273438 L 165.769531 42.261719 L 165.773438 42.253906 L 165.777344 42.25 L 165.785156 42.238281 L 165.789062 42.226562 L 165.792969 42.222656 L 165.796875 42.214844 L 165.804688 42.203125 L 165.808594 42.191406 L 165.8125 42.1875 L 165.816406 42.179688 L 166.023438 41.808594 L 166.035156 41.789062 L 166.042969 41.773438 L 166.054688 41.753906 L 166.0625 41.738281 L 166.074219 41.722656 L 166.082031 41.703125 L 166.09375 41.6875 L 166.101562 41.667969 L 166.113281 41.652344 L 166.121094 41.632812 L 166.128906 41.617188 L 166.140625 41.601562 L 166.148438 41.582031 L 166.160156 41.566406 L 166.167969 41.546875 L 166.179688 41.53125 L 166.1875 41.511719 L 166.199219 41.496094 L 166.207031 41.476562 L 166.21875 41.460938 L 166.230469 41.4375 L 166.476562 40.996094 L 166.515625 40.925781 L 166.59375 40.789062 L 166.59375 40.785156 L 166.644531 40.695312 L 166.855469 40.320312 L 166.859375 40.3125 L 166.875 40.289062 L 166.878906 40.277344 L 166.882812 40.269531 L 166.886719 40.265625 L 166.894531 40.253906 L 166.898438 40.242188 L 166.902344 40.234375 L 166.90625 40.230469 L 166.914062 40.21875 L 166.917969 40.207031 L 166.933594 40.183594 L 166.9375 40.171875 L 166.960938 40.132812 L 166.964844 40.125 L 167.011719 40.042969 L 167.015625 40.03125 L 167.019531 40.027344 L 167.023438 40.019531 L 167.03125 40.007812 L 167.035156 40 L 167.273438 39.582031 L 167.273438 39.578125 L 167.28125 39.566406 L 167.28125 39.5625 L 167.300781 39.53125 L 167.300781 39.527344 L 167.308594 39.519531 L 167.328125 39.480469 L 167.332031 39.476562 L 167.335938 39.46875 L 167.371094 39.40625 L 167.382812 39.382812 L 167.390625 39.371094 L 167.398438 39.355469 L 167.449219 39.265625 L 167.453125 39.257812 L 167.472656 39.222656 L 167.476562 39.214844 L 167.480469 39.210938 L 167.691406 38.835938 L 167.699219 38.828125 L 167.703125 38.820312 L 167.707031 38.816406 L 167.710938 38.804688 L 167.710938 38.800781 L 167.71875 38.792969 L 167.722656 38.785156 L 167.726562 38.78125 L 167.730469 38.769531 L 167.738281 38.757812 L 167.742188 38.75 L 167.746094 38.746094 L 167.75 38.734375 L 167.757812 38.722656 L 167.761719 38.714844 L 167.765625 38.710938 L 167.769531 38.699219 L 167.773438 38.699219 L 167.777344 38.6875 L 167.78125 38.679688 L 167.792969 38.664062 L 167.796875 38.652344 L 167.800781 38.644531 L 167.804688 38.640625 L 167.8125 38.628906 L 167.820312 38.609375 L 167.824219 38.605469 L 167.859375 38.542969 L 167.863281 38.535156 L 168.117188 38.09375 L 168.121094 38.089844 L 168.125 38.078125 L 168.128906 38.078125 L 168.132812 38.066406 L 168.140625 38.050781 L 168.148438 38.042969 L 168.148438 38.039062 L 168.15625 38.027344 L 168.15625 38.023438 L 168.164062 38.015625 L 168.171875 38 L 168.179688 37.988281 L 168.183594 37.976562 L 168.1875 37.972656 L 168.191406 37.964844 L 168.199219 37.953125 L 168.226562 37.902344 L 168.230469 37.902344 L 168.234375 37.886719 L 168.238281 37.886719 L 168.332031 37.722656 L 168.546875 37.351562 L 168.558594 37.335938 L 168.5625 37.328125 L 168.570312 37.316406 C 168.78125 36.957031 168.992188 36.597656 169.207031 36.238281 L 169.210938 36.238281 C 169.285156 36.117188 169.359375 35.992188 169.433594 35.867188 L 169.441406 35.855469 L 169.445312 35.851562 L 169.449219 35.84375 L 169.464844 35.820312 L 169.464844 35.816406 L 169.46875 35.808594 L 169.484375 35.785156 L 169.488281 35.78125 L 169.492188 35.773438 L 169.507812 35.746094 L 169.511719 35.738281 L 169.519531 35.730469 L 169.519531 35.726562 L 169.5625 35.660156 L 169.5625 35.65625 L 169.570312 35.648438 C 169.753906 35.347656 169.9375 35.050781 170.125 34.753906 C 170.207031 34.628906 170.285156 34.507812 170.363281 34.382812 L 170.371094 34.371094 L 170.375 34.367188 L 170.429688 34.277344 L 170.453125 34.242188 C 170.664062 33.914062 170.878906 33.589844 171.09375 33.269531 C 171.179688 33.144531 171.261719 33.019531 171.347656 32.898438 C 171.605469 32.523438 171.867188 32.148438 172.132812 31.785156 C 172.222656 31.660156 172.3125 31.535156 172.40625 31.410156 C 172.605469 31.144531 172.804688 30.878906 173.011719 30.617188 L 173.015625 30.609375 L 173.066406 30.546875 L 173.070312 30.539062 L 173.078125 30.527344 L 173.085938 30.523438 L 173.09375 30.511719 L 173.097656 30.503906 L 173.105469 30.492188 L 173.113281 30.488281 L 173.121094 30.476562 L 173.125 30.472656 L 173.136719 30.457031 L 173.136719 30.453125 L 173.152344 30.4375 L 173.164062 30.421875 L 173.164062 30.417969 L 173.179688 30.402344 C 173.40625 30.117188 173.636719 29.832031 173.867188 29.554688 C 173.972656 29.429688 174.078125 29.308594 174.1875 29.183594 L 174.183594 29.183594 C 174.417969 28.914062 174.65625 28.648438 174.898438 28.386719 L 174.910156 28.378906 L 174.917969 28.371094 L 174.925781 28.359375 L 174.957031 28.328125 L 174.964844 28.316406 L 174.972656 28.308594 L 174.984375 28.300781 L 174.988281 28.292969 L 175 28.28125 L 175.003906 28.273438 L 175.070312 28.207031 L 175.097656 28.175781 L 175.132812 28.140625 L 175.148438 28.121094 L 175.164062 28.105469 L 175.167969 28.105469 L 175.183594 28.089844 L 175.183594 28.085938 L 175.199219 28.070312 C 175.316406 27.945312 175.4375 27.824219 175.558594 27.699219 L 175.609375 27.648438 L 175.613281 27.648438 L 175.621094 27.636719 L 175.632812 27.625 L 175.644531 27.617188 L 175.648438 27.609375 L 175.65625 27.605469 L 175.714844 27.546875 L 175.71875 27.539062 L 175.726562 27.535156 L 175.734375 27.523438 L 175.738281 27.523438 L 175.746094 27.511719 L 175.757812 27.503906 L 175.757812 27.5 L 175.78125 27.476562 L 175.792969 27.46875 L 175.792969 27.464844 L 175.804688 27.457031 L 175.808594 27.449219 L 175.816406 27.445312 L 175.839844 27.421875 L 175.84375 27.414062 L 175.851562 27.410156 L 175.921875 27.339844 L 175.933594 27.332031 C 176.0625 27.207031 176.191406 27.082031 176.324219 26.960938 L 176.328125 26.953125 L 176.339844 26.941406 L 176.34375 26.941406 L 176.378906 26.90625 L 176.382812 26.90625 L 176.390625 26.894531 L 176.402344 26.886719 L 176.402344 26.882812 L 176.417969 26.875 L 176.464844 26.828125 L 176.480469 26.816406 L 176.515625 26.78125 L 176.519531 26.78125 L 176.566406 26.734375 L 176.578125 26.726562 L 176.582031 26.726562 L 176.59375 26.714844 L 176.597656 26.707031 L 176.605469 26.703125 L 176.636719 26.671875 L 176.644531 26.667969 L 176.65625 26.65625 L 176.660156 26.65625 L 176.667969 26.644531 L 176.679688 26.636719 L 176.679688 26.632812 L 176.695312 26.621094 L 176.699219 26.617188 L 176.707031 26.613281 L 176.730469 26.589844 C 176.929688 26.414062 177.128906 26.242188 177.332031 26.074219 L 177.332031 26.070312 L 177.371094 26.039062 L 177.375 26.035156 L 177.414062 26.003906 L 177.421875 26 L 177.425781 25.992188 L 177.441406 25.980469 L 177.453125 25.96875 L 177.464844 25.964844 L 177.46875 25.960938 L 177.484375 25.949219 L 177.484375 25.945312 L 177.496094 25.9375 L 177.507812 25.925781 L 177.511719 25.925781 L 177.539062 25.902344 L 177.550781 25.890625 C 177.890625 25.617188 178.234375 25.355469 178.585938 25.101562 C 178.761719 24.976562 178.941406 24.855469 179.125 24.734375 L 179.121094 24.734375 C 179.730469 24.324219 180.367188 23.953125 181.023438 23.621094 L 181.027344 23.621094 C 181.28125 23.488281 181.542969 23.363281 181.804688 23.246094 C 182.878906 22.765625 184.015625 22.390625 185.21875 22.132812 L 185.222656 22.132812 C 185.949219 21.976562 186.703125 21.867188 187.480469 21.804688 C 188.261719 21.867188 189.015625 21.976562 189.742188 22.132812 L 189.746094 22.132812 C 190.949219 22.390625 192.085938 22.765625 193.160156 23.246094 C 193.421875 23.363281 193.683594 23.488281 193.9375 23.621094 L 193.941406 23.621094 C 194.597656 23.953125 195.230469 24.324219 195.84375 24.734375 L 195.839844 24.734375 C 196.023438 24.851562 196.203125 24.976562 196.378906 25.101562 C 196.777344 25.386719 197.164062 25.6875 197.542969 26 L 197.550781 26.003906 L 197.566406 26.015625 L 197.578125 26.027344 L 197.589844 26.035156 L 197.609375 26.054688 L 197.632812 26.070312 L 197.632812 26.074219 L 197.648438 26.085938 L 197.660156 26.097656 L 197.675781 26.105469 L 197.675781 26.109375 L 197.699219 26.125 L 197.703125 26.128906 L 197.71875 26.140625 L 197.71875 26.144531 L 197.730469 26.152344 L 197.742188 26.164062 L 197.746094 26.164062 L 197.761719 26.179688 L 197.773438 26.1875 L 197.785156 26.199219 L 197.800781 26.210938 L 197.804688 26.214844 C 197.949219 26.339844 198.09375 26.460938 198.234375 26.585938 L 198.246094 26.601562 L 198.261719 26.613281 L 198.285156 26.636719 L 198.289062 26.636719 L 198.304688 26.648438 L 198.308594 26.652344 L 198.316406 26.664062 L 198.328125 26.671875 L 198.34375 26.6875 L 198.347656 26.6875 L 198.371094 26.710938 L 198.386719 26.722656 L 198.386719 26.726562 L 198.398438 26.738281 L 198.40625 26.742188 L 198.425781 26.761719 L 198.429688 26.761719 L 198.441406 26.777344 L 198.445312 26.777344 L 198.496094 26.828125 L 198.503906 26.832031 L 198.523438 26.851562 L 198.539062 26.863281 L 198.542969 26.867188 L 198.550781 26.878906 L 198.5625 26.886719 L 198.566406 26.890625 L 198.582031 26.902344 L 198.582031 26.90625 L 198.59375 26.914062 L 198.621094 26.941406 L 198.636719 26.953125 L 198.640625 26.960938 C 198.800781 27.105469 198.957031 27.257812 199.113281 27.410156 L 199.226562 27.523438 L 199.230469 27.523438 L 199.296875 27.59375 L 199.332031 27.628906 L 199.335938 27.628906 L 199.351562 27.648438 L 199.40625 27.703125 C 199.527344 27.824219 199.648438 27.949219 199.765625 28.074219 L 199.816406 28.125 L 199.863281 28.175781 L 199.867188 28.175781 L 199.878906 28.191406 L 199.898438 28.210938 L 199.910156 28.226562 L 199.925781 28.242188 L 199.933594 28.246094 L 199.945312 28.257812 L 199.960938 28.277344 L 199.976562 28.292969 L 199.980469 28.300781 L 200.023438 28.34375 L 200.03125 28.355469 L 200.066406 28.390625 L 200.070312 28.398438 L 200.082031 28.40625 L 200.085938 28.414062 L 200.101562 28.429688 C 200.332031 28.679688 200.558594 28.929688 200.78125 29.1875 L 200.777344 29.1875 C 200.886719 29.308594 200.992188 29.433594 201.097656 29.558594 C 201.339844 29.847656 201.578125 30.144531 201.816406 30.441406 L 201.828125 30.457031 L 201.828125 30.460938 L 201.84375 30.476562 L 201.855469 30.492188 L 201.859375 30.496094 L 201.867188 30.507812 L 201.871094 30.511719 L 201.878906 30.523438 L 201.886719 30.53125 L 201.894531 30.542969 L 201.898438 30.546875 L 201.90625 30.558594 L 201.914062 30.566406 L 201.921875 30.578125 L 201.925781 30.582031 C 202.140625 30.855469 202.351562 31.132812 202.558594 31.414062 C 202.652344 31.539062 202.742188 31.660156 202.832031 31.785156 C 203.097656 32.152344 203.359375 32.523438 203.617188 32.898438 C 203.703125 33.023438 203.785156 33.148438 203.871094 33.273438 C 204.085938 33.59375 204.300781 33.917969 204.511719 34.246094 L 204.539062 34.289062 L 204.546875 34.296875 L 204.546875 34.300781 L 204.5625 34.324219 L 204.566406 34.332031 L 204.570312 34.335938 L 204.585938 34.359375 L 204.589844 34.367188 L 204.59375 34.371094 L 204.601562 34.382812 C 204.679688 34.507812 204.757812 34.632812 204.839844 34.753906 C 205.015625 35.03125 205.1875 35.3125 205.359375 35.589844 L 205.378906 35.625 L 205.386719 35.636719 L 205.390625 35.640625 L 205.394531 35.648438 L 205.402344 35.660156 L 205.414062 35.675781 L 205.417969 35.683594 L 205.421875 35.695312 L 205.429688 35.707031 L 205.433594 35.710938 L 205.4375 35.71875 L 205.453125 35.742188 L 205.457031 35.746094 L 205.457031 35.753906 L 205.472656 35.777344 L 205.476562 35.78125 L 205.480469 35.789062 L 205.496094 35.8125 L 205.5 35.816406 L 205.5 35.824219 L 205.507812 35.832031 L 205.507812 35.835938 L 205.515625 35.84375 L 205.519531 35.851562 L 205.523438 35.855469 L 205.53125 35.867188 C 205.605469 35.992188 205.679688 36.117188 205.753906 36.242188 C 205.980469 36.609375 206.199219 36.980469 206.417969 37.355469 L 206.632812 37.722656 C 206.84375 38.085938 207.046875 38.445312 207.253906 38.804688 L 207.273438 38.839844 L 207.484375 39.210938 L 207.496094 39.234375 L 207.503906 39.246094 L 207.515625 39.269531 L 207.523438 39.28125 L 207.527344 39.285156 L 207.53125 39.292969 L 207.574219 39.375 L 207.585938 39.390625 L 207.589844 39.398438 L 207.597656 39.40625 L 207.597656 39.410156 L 207.605469 39.425781 L 207.609375 39.429688 L 207.617188 39.441406 L 207.621094 39.453125 L 207.625 39.460938 L 207.628906 39.464844 L 207.636719 39.476562 L 207.640625 39.488281 L 207.644531 39.496094 L 207.648438 39.5 L 207.652344 39.511719 L 207.660156 39.523438 L 207.664062 39.53125 L 207.667969 39.535156 L 207.671875 39.546875 L 207.679688 39.558594 L 207.683594 39.5625 L 207.6875 39.570312 L 207.691406 39.582031 L 207.902344 39.953125 L 207.90625 39.957031 L 207.910156 39.964844 L 207.914062 39.976562 L 207.933594 40.011719 L 207.941406 40.023438 L 207.945312 40.027344 L 207.949219 40.035156 L 207.953125 40.046875 L 207.960938 40.058594 L 207.964844 40.0625 L 207.96875 40.070312 L 207.972656 40.082031 L 207.980469 40.09375 L 207.984375 40.097656 L 207.992188 40.113281 L 207.992188 40.117188 L 208 40.128906 L 208.003906 40.132812 L 208.011719 40.148438 L 208.011719 40.152344 L 208.019531 40.160156 L 208.023438 40.167969 L 208.027344 40.171875 L 208.03125 40.183594 L 208.039062 40.195312 L 208.042969 40.203125 L 208.046875 40.207031 L 208.050781 40.21875 L 208.058594 40.230469 L 208.0625 40.238281 L 208.066406 40.242188 L 208.070312 40.253906 L 208.078125 40.265625 L 208.082031 40.269531 L 208.089844 40.289062 L 208.097656 40.300781 L 208.101562 40.304688 L 208.105469 40.3125 L 208.109375 40.324219 L 208.316406 40.695312 L 208.320312 40.699219 L 208.332031 40.71875 L 208.339844 40.734375 L 208.351562 40.753906 L 208.359375 40.769531 L 208.371094 40.789062 L 208.378906 40.804688 L 208.390625 40.824219 L 208.398438 40.839844 L 208.410156 40.855469 L 208.417969 40.875 L 208.429688 40.890625 L 208.4375 40.910156 L 208.449219 40.925781 L 208.457031 40.945312 L 208.46875 40.960938 L 208.496094 41.011719 L 208.507812 41.03125 L 208.515625 41.046875 L 208.527344 41.066406 L 208.734375 41.4375 L 208.746094 41.460938 L 208.757812 41.480469 L 208.765625 41.496094 L 208.777344 41.515625 L 208.785156 41.53125 L 208.796875 41.546875 L 208.804688 41.566406 L 208.816406 41.582031 L 208.824219 41.601562 L 208.835938 41.617188 L 208.84375 41.636719 L 208.855469 41.652344 L 208.863281 41.667969 L 208.875 41.6875 L 208.882812 41.703125 L 208.890625 41.722656 L 208.902344 41.738281 L 208.910156 41.757812 L 208.921875 41.773438 L 208.929688 41.789062 L 208.941406 41.808594 L 209.148438 42.179688 L 209.152344 42.1875 L 209.15625 42.191406 L 209.160156 42.203125 L 209.164062 42.203125 L 209.167969 42.214844 L 209.171875 42.222656 L 209.175781 42.226562 L 209.179688 42.238281 L 209.183594 42.238281 L 209.1875 42.25 L 209.191406 42.257812 L 209.195312 42.261719 L 209.199219 42.273438 L 209.210938 42.292969 L 209.214844 42.296875 L 209.21875 42.308594 L 209.222656 42.308594 L 209.226562 42.320312 L 209.230469 42.324219 L 209.234375 42.332031 L 209.238281 42.34375 L 209.242188 42.34375 L 209.246094 42.355469 L 209.25 42.359375 L 209.253906 42.367188 L 209.257812 42.378906 L 209.261719 42.378906 L 209.292969 42.4375 L 209.296875 42.449219 L 209.304688 42.457031 L 209.308594 42.464844 L 209.3125 42.46875 L 209.335938 42.515625 L 209.34375 42.527344 L 209.347656 42.535156 L 209.351562 42.539062 L 209.355469 42.550781 L 209.566406 42.921875 L 209.566406 42.929688 L 209.570312 42.9375 L 209.632812 43.042969 L 209.636719 43.050781 L 209.640625 43.054688 L 209.667969 43.109375 L 209.675781 43.121094 L 209.691406 43.148438 L 209.695312 43.152344 L 209.699219 43.160156 L 209.714844 43.1875 L 209.722656 43.203125 L 209.722656 43.207031 L 209.730469 43.214844 L 209.734375 43.222656 L 209.734375 43.226562 L 209.742188 43.242188 L 209.746094 43.242188 L 209.765625 43.28125 L 209.773438 43.292969 L 210.042969 43.769531 L 210.046875 43.777344 L 210.046875 43.78125 L 210.074219 43.828125 L 210.082031 43.839844 L 210.085938 43.84375 L 210.085938 43.851562 L 210.101562 43.875 L 210.105469 43.878906 L 210.105469 43.886719 L 210.132812 43.929688 L 210.132812 43.933594 L 210.140625 43.945312 L 210.144531 43.949219 L 210.152344 43.964844 L 210.152344 43.96875 L 210.160156 43.976562 L 210.164062 43.984375 L 210.167969 43.988281 L 210.171875 44 L 210.179688 44.011719 L 210.183594 44.019531 L 210.1875 44.023438 L 210.191406 44.035156 L 210.402344 44.40625 L 210.410156 44.414062 L 210.410156 44.417969 L 210.417969 44.429688 L 210.417969 44.433594 L 210.425781 44.441406 L 210.429688 44.449219 L 210.429688 44.453125 L 210.4375 44.464844 L 210.441406 44.464844 L 210.445312 44.476562 L 210.449219 44.484375 L 210.453125 44.488281 L 210.457031 44.5 L 210.460938 44.5 L 210.464844 44.511719 L 210.46875 44.519531 L 210.472656 44.523438 L 210.480469 44.535156 L 210.484375 44.546875 L 210.488281 44.554688 L 210.492188 44.558594 L 210.5 44.570312 L 210.503906 44.582031 L 210.507812 44.585938 L 210.511719 44.59375 L 210.527344 44.617188 L 210.53125 44.621094 L 210.53125 44.628906 L 210.546875 44.652344 L 210.550781 44.65625 L 210.550781 44.664062 L 210.558594 44.671875 L 210.558594 44.675781 L 210.566406 44.6875 L 210.570312 44.691406 L 210.578125 44.707031 L 210.578125 44.710938 L 210.585938 44.71875 L 210.605469 44.753906 L 210.609375 44.757812 L 210.613281 44.765625 L 210.617188 44.777344 L 210.835938 45.148438 L 210.839844 45.15625 L 210.839844 45.160156 L 210.847656 45.171875 L 210.851562 45.175781 L 210.867188 45.207031 L 210.871094 45.210938 L 210.878906 45.226562 L 210.882812 45.230469 L 210.890625 45.242188 L 210.890625 45.246094 L 210.894531 45.253906 L 210.902344 45.261719 L 210.902344 45.265625 L 210.917969 45.289062 L 210.921875 45.296875 L 210.921875 45.300781 L 210.9375 45.324219 L 210.941406 45.332031 L 210.945312 45.335938 L 210.949219 45.347656 L 210.957031 45.359375 L 210.960938 45.367188 L 210.964844 45.371094 L 210.972656 45.382812 L 210.976562 45.394531 L 210.980469 45.398438 L 210.984375 45.40625 L 211 45.429688 L 211 45.433594 L 211.003906 45.441406 L 211.019531 45.464844 L 211.023438 45.46875 L 211.03125 45.484375 L 211.03125 45.488281 L 211.039062 45.5 L 211.042969 45.503906 L 211.050781 45.519531 C 211.125 45.644531 211.199219 45.769531 211.273438 45.890625 L 211.277344 45.898438 L 211.277344 45.902344 L 211.28125 45.910156 L 211.289062 45.917969 L 211.296875 45.933594 L 211.296875 45.9375 L 211.304688 45.945312 L 211.3125 45.960938 L 211.320312 45.96875 L 211.320312 45.972656 L 211.328125 45.988281 L 211.332031 45.988281 L 211.339844 46.003906 L 211.339844 46.007812 L 211.347656 46.015625 L 211.359375 46.039062 L 211.363281 46.042969 L 211.367188 46.050781 L 211.496094 46.261719 L 211.609375 46.457031 L 211.71875 46.632812 L 211.945312 47.003906 L 212.167969 47.375 L 212.621094 48.117188 L 212.84375 48.488281 L 213.070312 48.863281 L 213.523438 49.605469 L 213.746094 49.976562 L 213.972656 50.347656 L 214.195312 50.71875 L 214.648438 51.460938 L 214.871094 51.832031 L 215.324219 52.574219 L 215.546875 52.945312 L 216 53.6875 L 216.222656 54.058594 L 216.902344 55.171875 L 217.125 55.542969 L 217.351562 55.914062 L 217.574219 56.285156 L 218.027344 57.027344 L 218.25 57.398438 L 218.703125 58.140625 L 218.929688 58.515625 L 219.152344 58.886719 L 219.378906 59.257812 L 219.601562 59.628906 L 219.828125 59.996094 L 220.054688 60.367188 L 220.277344 60.742188 L 220.730469 61.484375 L 220.953125 61.855469 L 221.40625 62.597656 L 221.628906 62.96875 L 222.082031 63.710938 L 222.304688 64.082031 L 222.757812 64.824219 L 222.980469 65.195312 L 223.433594 65.9375 L 223.65625 66.308594 L 224.109375 67.050781 L 224.332031 67.421875 L 224.785156 68.164062 L 225.007812 68.539062 L 225.234375 68.90625 L 225.460938 69.277344 L 225.683594 69.648438 L 226.136719 70.390625 L 226.359375 70.761719 L 226.585938 71.136719 L 227.039062 71.878906 L 227.261719 72.25 L 227.488281 72.621094 L 227.710938 72.992188 L 228.390625 74.105469 L 228.613281 74.476562 L 229.066406 75.21875 L 229.289062 75.589844 L 229.515625 75.960938 L 229.738281 76.332031 L 230.191406 77.074219 L 230.414062 77.445312 L 230.640625 77.816406 L 230.867188 78.191406 L 231.089844 78.558594 L 231.542969 79.300781 L 231.765625 79.671875 L 231.992188 80.046875 L 232.445312 80.789062 L 232.667969 81.160156 L 232.894531 81.53125 L 233.117188 81.902344 L 233.570312 82.644531 L 233.792969 83.015625 L 234.246094 83.757812 L 234.46875 84.128906 L 234.921875 84.871094 L 235.144531 85.242188 L 235.597656 85.984375 L 235.820312 86.355469 L 236.273438 87.097656 L 236.496094 87.46875 L 236.722656 87.84375 L 236.949219 88.210938 L 237.171875 88.582031 L 237.398438 88.953125 L 237.625 89.328125 L 237.847656 89.699219 L 238.527344 90.8125 L 238.75 91.183594 L 238.976562 91.554688 L 239.199219 91.925781 L 239.878906 93.039062 L 240.101562 93.410156 L 240.554688 94.152344 L 240.777344 94.523438 L 241.003906 94.894531 L 241.226562 95.265625 L 241.90625 96.378906 L 242.128906 96.75 L 242.355469 97.125 L 242.582031 97.496094 L 242.804688 97.863281 L 243.03125 98.238281 L 243.257812 98.605469 L 243.480469 98.976562 L 243.707031 99.351562 L 243.933594 99.722656 L 244.15625 100.09375 L 244.609375 100.835938 L 244.832031 101.207031 L 245.285156 101.949219 L 245.507812 102.320312 L 245.960938 103.0625 L 246.183594 103.433594 L 246.410156 103.804688 L 246.632812 104.175781 L 247.3125 105.289062 L 247.535156 105.660156 L 247.761719 106.035156 L 247.988281 106.40625 L 248.210938 106.777344 L 248.664062 107.519531 L 248.886719 107.890625 L 249.339844 108.632812 L 249.5625 109.003906 L 250.015625 109.746094 L 250.238281 110.117188 L 250.691406 110.859375 L 250.914062 111.230469 L 251.367188 111.972656 L 251.589844 112.34375 L 252.042969 113.085938 L 252.265625 113.457031 L 252.71875 114.199219 L 252.941406 114.570312 L 253.167969 114.945312 L 253.394531 115.316406 L 253.617188 115.6875 L 254.070312 116.429688 L 254.292969 116.800781 L 254.746094 117.542969 L 254.96875 117.914062 L 255.648438 119.027344 L 255.871094 119.398438 L 256.097656 119.769531 L 256.320312 120.140625 L 256.773438 120.882812 L 256.996094 121.253906 L 257.449219 121.996094 L 257.675781 122.371094 L 257.898438 122.742188 L 258.351562 123.484375 L 258.574219 123.855469 L 259.027344 124.597656 L 259.25 124.96875 L 259.703125 125.710938 L 259.925781 126.082031 L 260.378906 126.824219 L 260.601562 127.195312 L 261.054688 127.9375 L 261.277344 128.308594 L 261.957031 129.421875 L 262.179688 129.792969 L 262.40625 130.164062 L 262.628906 130.535156 L 263.082031 131.277344 L 263.308594 131.652344 L 263.53125 132.023438 L 263.757812 132.394531 L 263.980469 132.761719 L 264.207031 133.136719 L 264.660156 133.878906 L 264.882812 134.25 L 265.5625 135.363281 L 265.785156 135.734375 L 266.011719 136.105469 L 266.234375 136.476562 L 266.6875 137.21875 L 266.910156 137.589844 L 267.589844 138.703125 L 267.8125 139.074219 L 268.265625 139.816406 L 268.488281 140.1875 L 268.714844 140.558594 L 268.941406 140.933594 L 269.164062 141.304688 L 269.617188 142.046875 L 269.839844 142.414062 L 270.066406 142.789062 L 270.292969 143.160156 L 270.515625 143.53125 L 270.96875 144.273438 L 370.859375 308.902344 C 319.070312 308.59375 209.96875 317.847656 203.007812 223.296875 C 202.171875 211.964844 223.945312 213.046875 241.902344 201.128906 C 252.867188 193.851562 257.425781 185.109375 255.566406 174.910156 C 239.027344 196.832031 202.699219 178.546875 187.484375 195.410156 C 172.269531 178.546875 135.9375 196.832031 119.402344 174.910156 C 117.542969 185.113281 122.097656 193.851562 133.066406 201.128906 C 151.019531 213.046875 172.800781 211.964844 171.960938 223.296875 C 165 317.847656 55.898438 308.59375 4.109375 308.902344 Z M 4.109375 308.90625 " fill-opacity="1" fill-rule="evenodd"/></g><g clip-path="url(#id2)"><path fill="#00d7ff" d="M 204.292969 234.027344 C 218.5 317.136719 321.117188 308.609375 370.859375 308.90625 C 324.382812 262.878906 264.886719 237.921875 204.292969 234.027344 Z M 4.109375 308.90625 C 53.851562 308.609375 156.464844 317.136719 170.664062 234.027344 C 110.074219 237.921875 50.585938 262.878906 4.109375 308.90625 Z M 4.109375 308.90625 " fill-opacity="1" fill-rule="evenodd"/></g><path fill="#00d7ff" d="M 187.5 195.433594 C 172.25 178.5625 135.945312 196.847656 119.414062 174.941406 C 117.523438 185.128906 122.128906 193.871094 133.074219 201.144531 C 151.039062 213.066406 172.78125 211.976562 171.949219 223.3125 C 171.722656 227.050781 171.269531 230.613281 170.667969 234.027344 C 169.457031 234.085938 168.25 234.175781 166.96875 234.265625 L 166.96875 234.324219 C 127.867188 237.382812 89.21875 249.277344 54.421875 269.972656 L 117.375 166.226562 L 122.28125 172.765625 C 136.773438 191.957031 169.910156 176.265625 187.5 190.488281 C 205.085938 176.265625 238.222656 191.957031 252.71875 172.765625 L 257.625 166.226562 L 320.578125 269.972656 C 285.777344 249.277344 247.207031 237.382812 208.03125 234.324219 L 208.03125 234.265625 C 206.746094 234.175781 205.539062 234.085938 204.332031 234.027344 C 203.726562 230.613281 203.273438 227.050781 203.046875 223.3125 C 202.21875 211.976562 223.957031 213.066406 241.921875 201.144531 C 252.867188 193.871094 257.472656 185.128906 255.585938 174.941406 C 239.054688 196.847656 202.746094 178.5625 187.5 195.433594 Z M 187.5 195.433594 " fill-opacity="1" fill-rule="evenodd"/></svg>